<svg width="175" height="38" fill="none" xmlns="http://www.w3.org/2000/svg"><path d="M174.962 17.192V14.06h-3.823V9.193l-.128.041-3.589 1.113h-.068v3.685h-5.665v-2.058c0-.946.219-1.683.629-2.17.41-.486 1.011-.73 1.75-.73.546 0 1.121.14 1.667.39l.137.055V6.236l-.055-.028c-.519-.188-1.23-.285-2.105-.285-1.107 0-2.119.25-3.007.743a4.987 4.987 0 00-2.065 2.072c-.492.89-.738 1.92-.738 3.046v2.252h-2.652v3.13h2.666V30.35h3.814V17.166h5.669v8.372c0 3.449 1.594 5.201 4.758 5.201.519 0 1.066-.067 1.613-.18.567-.126.957-.251 1.175-.376l.055-.028v-3.157l-.154.106a2.62 2.62 0 01-.766.343c-.301.084-.561.14-.755.14-.738 0-1.285-.195-1.621-.595-.347-.396-.519-1.098-.519-2.086v-7.704h3.8l-.008-.02-.015.01zm-28.285 10.403c-1.385 0-2.478-.469-3.253-1.391-.77-.925-1.162-2.245-1.162-3.922 0-1.73.392-3.087 1.166-4.027.771-.935 1.853-1.41 3.221-1.41 1.326 0 2.365.453 3.13 1.348.766.902 1.148 2.245 1.148 3.994 0 1.772-.355 3.134-1.066 4.043-.711.904-1.777 1.363-3.171 1.363l-.013.002zm.177-13.927c-2.639 0-4.741.787-6.24 2.342-1.49 1.558-2.253 3.708-2.253 6.397 0 2.56.739 4.61 2.206 6.105 1.462 1.503 3.454 2.281 5.915 2.281 2.559 0 4.62-.806 6.113-2.37 1.504-1.575 2.25-3.708 2.25-6.333 0-2.595-.71-4.667-2.118-6.147-1.409-1.493-3.383-2.247-5.879-2.247l.006-.028zm-14.661.028c-1.804 0-3.286.467-4.429 1.39-1.137.93-1.722 2.142-1.722 3.616 0 .77.128 1.447.377 2.03a4.038 4.038 0 001.14 1.514c.506.417 1.285.862 2.324 1.318.875.362 1.517.668 1.933.918.41.233.7.473.848.705.164.223.246.543.246.918 0 1.104-.804 1.636-2.461 1.636-.618 0-1.321-.131-2.089-.39a7.677 7.677 0 01-2.142-1.101l-.164-.111v3.727l.054.027c.547.25 1.221.473 2.024.64a9.912 9.912 0 002.16.264c1.955 0 3.527-.472 4.675-1.396 1.148-.934 1.736-2.183 1.736-3.705 0-1.098-.314-2.044-.936-2.802-.615-.76-1.682-1.452-3.176-2.064-1.18-.487-1.941-.89-2.269-1.196-.301-.3-.442-.723-.442-1.257 0-.473.192-.854.581-1.16.391-.313.938-.469 1.622-.469a6.58 6.58 0 011.941.3c.642.205 1.21.472 1.681.8l.16.112V14.4l-.054-.028c-.445-.195-1.022-.358-1.723-.487a9.985 9.985 0 00-1.88-.195l-.015.006zM116.077 27.61c-1.381 0-2.474-.464-3.24-1.39-.779-.918-1.169-2.24-1.169-3.922 0-1.725.391-3.088 1.168-4.024.765-.934 1.851-1.41 3.212-1.41 1.326 0 2.379.454 3.138 1.35.754.903 1.148 2.247 1.148 3.996 0 1.77-.369 3.13-1.08 4.04-.697.904-1.763 1.363-3.172 1.363l-.005-.003zm.197-13.918c-2.652 0-4.757.784-6.248 2.34-1.499 1.557-2.255 3.705-2.255 6.396 0 2.56.738 4.61 2.191 6.106 1.466 1.502 3.453 2.28 5.913 2.28 2.57 0 4.62-.806 6.124-2.378 1.496-1.577 2.256-3.71 2.256-6.334 0-2.597-.711-4.669-2.106-6.147-1.408-1.495-3.384-2.25-5.878-2.25l.003-.013zm-14.272 3.224V14.08h-3.773v16.313h3.773v-8.345c0-1.418.314-2.586.939-3.47.615-.878 1.435-1.307 2.433-1.307.342 0 .725.056 1.146.167.41.111.705.223.875.362l.164.111v-3.866l-.06-.028c-.356-.161-.848-.24-1.477-.24a3.84 3.84 0 00-2.518.919c-.642.54-1.103 1.274-1.456 2.191h-.068l.034.028-.012.002zM91.448 13.69c-1.736 0-3.28.369-4.593 1.113a7.499 7.499 0 00-3.035 3.17c-.684 1.35-1.04 2.928-1.04 4.687 0 1.544.345 2.954 1.013 4.203a7.215 7.215 0 002.83 2.907c1.194.671 2.583 1.015 4.12 1.015 1.793 0 3.322-.362 4.552-1.085l.055-.028v-3.52l-.164.114a6.881 6.881 0 01-1.846.981c-.667.236-1.274.356-1.804.356-1.485 0-2.672-.473-3.536-1.398-.875-.945-1.312-2.253-1.312-3.894 0-1.669.465-3.004 1.362-3.977.902-1.002 2.088-1.502 3.54-1.502 1.23 0 2.443.431 3.586 1.265l.164.112v-3.7l-.045-.027c-.43-.25-1.016-.445-1.75-.604a10.138 10.138 0 00-2.102-.228l.005.04zm-11.256.35h-3.768v16.326h3.773V14.04h-.005zm-1.86-6.94c-.62 0-1.161.214-1.607.64a2.137 2.137 0 00-.673 1.599c0 .625.228 1.154.67 1.571.438.417.984.623 1.613.623.63 0 1.176-.208 1.62-.626.449-.417.675-.945.675-1.571 0-.612-.218-1.14-.656-1.586-.437-.417-.984-.64-1.64-.64l-.002-.01zm-9.417 5.754v17.523h3.855V7.627h-5.332l-6.757 16.908-6.575-16.911h-5.543v22.769h3.623V12.877h.123l6.945 17.52h2.727l6.835-17.519h.13l-.02-.008-.011-.016zm-49.31 7.08h17.744V38H19.578l.024-18.054.003-.013zm-19.6.01h17.742V38H0l.005-18.054v-.002zM19.606.006h17.745v18.051H19.595L19.606 0v.006zM.006.003h17.741v18.054H0L.005 0v.003z" fill="#fff"/></svg>