<svg width="18" height="18" fill="none" xmlns="http://www.w3.org/2000/svg"><path d="M4.546 8.96c0-.607.103-1.2.308-1.778a5.25 5.25 0 01.924-1.596c.41-.485.91-.868 1.498-1.148.588-.29 1.255-.434 2.002-.434.887 0 1.647.205 2.282.616.635.401 1.106.92 1.414 1.554l-.994.644c-.196-.42-.448-.751-.756-.994a2.653 2.653 0 00-.98-.532 3.574 3.574 0 00-1.022-.154c-.55 0-1.04.112-1.47.336-.42.224-.775.523-1.064.896-.29.373-.509.793-.658 1.26-.14.457-.21.92-.21 1.386 0 .513.084 1.008.252 1.484.177.476.42.896.728 1.26s.672.653 1.092.868c.42.215.877.322 1.372.322.345 0 .7-.06 1.064-.182a3.328 3.328 0 001.022-.56c.317-.261.57-.597.756-1.008l1.05.574a3.143 3.143 0 01-.952 1.26c-.43.345-.91.607-1.442.784a4.815 4.815 0 01-1.554.266 4.08 4.08 0 01-1.876-.434 5.045 5.045 0 01-1.484-1.176 5.863 5.863 0 01-.966-1.652 5.414 5.414 0 01-.336-1.862z" fill="#000"/><circle cx="9" cy="9" r="8.5" stroke="#000"/></svg>