<svg width="18" height="23" fill="none" xmlns="http://www.w3.org/2000/svg"><path d="M1.841.13a.954.954 0 00-.959.945V21.92c0 .522.43.946.96.946h14.316a.953.953 0 00.959-.945V6.76h-6.208a.475.475 0 01-.477-.474V.13h-8.59zm9.546.33v5.354h5.193L11.387.46zM8.805 6.252a.96.96 0 01.72.304c.548.591.329 1.849-.273 3.775.587 1.37 1.46 2.857 2.36 3.928a8.119 8.119 0 011.137-.12c1.083-.03 1.948.205 2.434.662.342.322.457.737.306 1.11-.203.508-.828.798-1.715.798-.815 0-1.683-.561-2.504-1.417-.71.165-1.556.446-2.548.9a27.54 27.54 0 00-1.675.833c-.58 1.61-1.23 2.74-2.609 3.424-.39.194-.699.262-.94.262a.934.934 0 01-.53-.148c-.24-.16-.363-.43-.337-.742.062-.766 1.082-2.012 3.635-3.45a62.8 62.8 0 00.465-1.447c.119-.378.244-.778.382-1.201.17-.528.363-1.089.548-1.63a95.7 95.7 0 00.577-1.72c-.334-.839-.56-1.619-.636-2.23-.172-1.386.43-1.748.804-1.84.149-.037.281-.052.4-.05zm-.007.947a.659.659 0 00-.16.023c-.057.014-.158.236-.088.805.028.228.08.48.15.749.314-1.304.14-1.557.123-1.577h-.025zm.018 4.461l-.25.738c-.185.538-.376 1.094-.545 1.614h.001c-.136.42-.261.819-.379 1.194-.056.18-.111.356-.166.527.269-.132.55-.266.845-.401.78-.357 1.54-.638 2.259-.838a16.8 16.8 0 01-1.765-2.834zm4.007 3.426a6.026 6.026 0 00-.392.02c.476.41.937.656 1.343.656.547 0 .769-.135.82-.19-.021-.04-.099-.137-.302-.238-.144-.072-.612-.262-1.469-.248zm-7.142 2.752c-1.372.905-1.907 1.59-2.054 1.908.088-.02.214-.06.384-.145.775-.384 1.265-.95 1.67-1.763z" fill="#2E2E2E"/><path d="M1.841.13a.954.954 0 00-.959.945V21.92c0 .522.43.946.96.946h14.316a.953.953 0 00.959-.945V6.76h-6.208a.475.475 0 01-.477-.474V.13h-8.59zm9.546.33v5.354h5.193L11.387.46zM8.805 6.252a.96.96 0 01.72.304c.548.591.329 1.849-.273 3.775.587 1.37 1.46 2.857 2.36 3.928a8.119 8.119 0 011.137-.12c1.083-.03 1.948.205 2.434.662.342.322.457.737.306 1.11-.203.508-.828.798-1.715.798-.815 0-1.683-.561-2.504-1.417-.71.165-1.556.446-2.548.9a27.54 27.54 0 00-1.675.833c-.58 1.61-1.23 2.74-2.609 3.424-.39.194-.699.262-.94.262a.934.934 0 01-.53-.148c-.24-.16-.363-.43-.337-.742.062-.766 1.082-2.012 3.635-3.45a62.8 62.8 0 00.465-1.447c.119-.378.244-.778.382-1.201.17-.528.363-1.089.548-1.63a95.7 95.7 0 00.577-1.72c-.334-.839-.56-1.619-.636-2.23-.172-1.386.43-1.748.804-1.84.149-.037.281-.052.4-.05zm-.007.947a.659.659 0 00-.16.023c-.057.014-.158.236-.088.805.028.228.08.48.15.749.314-1.304.14-1.557.123-1.577h-.025zm.018 4.461l-.25.738c-.185.538-.376 1.094-.545 1.614h.001c-.136.42-.261.819-.379 1.194-.056.18-.111.356-.166.527.269-.132.55-.266.845-.401.78-.357 1.54-.638 2.259-.838a16.8 16.8 0 01-1.765-2.834zm4.007 3.426a6.026 6.026 0 00-.392.02c.476.41.937.656 1.343.656.547 0 .769-.135.82-.19-.021-.04-.099-.137-.302-.238-.144-.072-.612-.262-1.469-.248zm-7.142 2.752c-1.372.905-1.907 1.59-2.054 1.908.088-.02.214-.06.384-.145.775-.384 1.265-.95 1.67-1.763z" fill="#2E2E2E"/></svg>