<svg width="132" height="44" fill="none" xmlns="http://www.w3.org/2000/svg"><path d="M28.143 21.836H6.266a21.679 21.679 0 002.932 10.922h18.945V21.836z" fill="#F3E500"/><path d="M21.843 10.906H2.933A21.713 21.713 0 000 21.837h21.843v-10.93z" fill="#F88D2A"/><path d="M4.48 32.758a21.83 21.83 0 0018.928 10.914V32.758H4.48zM28.14 0A21.823 21.823 0 009.195 10.905H28.14V0z" fill="#009ADE"/><path d="M23.406 43.672a21.84 21.84 0 0018.92-10.914h-18.92v10.914zM28.14 0v10.905h18.878A21.814 21.814 0 0028.14 0z" fill="#0055B8"/><path d="M21.844 21.837h21.843a21.713 21.713 0 00-2.932-10.93H21.844v10.93z" fill="#E43D30"/><path d="M28.14 32.758h18.878a21.762 21.762 0 002.932-10.922H28.14v10.922z" fill="#A2D45E"/><path d="M59.54 42.98V1.166h9.657v18.026l15.32-18.026H95.36L79.684 19.834l16.73 23.146h-11.01L73.558 26.136l-4.36 4.536V42.98h-9.659z" fill="#009ADE"/><path d="M131.036 9.647H118.31V42.98h-9.658V9.647H95.867V1.166h35.169v8.481z" fill="#0055B8"/></svg>